<svg id="Layer_1" data-name="Layer 1" xmlns="http://www.w3.org/2000/svg" viewBox="0 0 968.49 194.96"><defs><style>.cls-1{fill:#fff;}.cls-2{font-size:115.36px;font-family:MyriadPro-Regular, Myriad Pro;}.cls-3,.cls-4,.cls-5,.cls-6{font-family:Pacifico-Regular, Pacifico;}.cls-3{letter-spacing:-0.02em;}.cls-4{letter-spacing:0em;}.cls-6{letter-spacing:0em;}</style></defs><rect x="0.5" y="0.5" width="185.2" height="185.2"/><path d="M195.21,35V219.2H11V35h184.2m1-1H10V220.2h186.2V34Z" transform="translate(-10.01 -34)"/><path class="cls-1" d="M24.55,184.05V82.37H38.88l32.59,51.45a286.29,286.29,0,0,1,18.25,33l.31-.15c-1.21-13.57-1.51-25.95-1.51-41.79V82.37h12.37V184.05H87.61L55.33,132.46a322.87,322.87,0,0,1-19-33.95l-.45.15c.75,12.83,1.05,25,1.05,41.94v43.45Z" transform="translate(-10.01 -34)"/><path class="cls-1" d="M186.21,136.76a7.9,7.9,0,0,1,2.33,5.8,11.5,11.5,0,0,1-.9,4.23,25.46,25.46,0,0,1-6.79,9.35,14.44,14.44,0,0,1-9.66,3.77,9.62,9.62,0,0,1-7.16-3,11.18,11.18,0,0,1-2.94-8.15q0-2.87.3-6.19a32.06,32.06,0,0,0,.3-3.31,2.73,2.73,0,0,0-.53-1.82,1.64,1.64,0,0,0-1.28-.6c-1.41,0-3.32,1.69-5.73,5a74.65,74.65,0,0,0-7.25,13.36,108.65,108.65,0,0,0-5.88,17.5q-1.67,7.24-3.77,9.65t-6.94,2.42q-5.73,0-8.07-6t-2.34-19.31a122.87,122.87,0,0,1,5.58-37.26,11.4,11.4,0,0,1,4.45-6.42q3.09-2,8.68-2a8.54,8.54,0,0,1,4.22.75,3.14,3.14,0,0,1,1.21,2.87q0,2.41-2.27,10.86c-1,4-1.81,7.54-2.41,10.56A108.57,108.57,0,0,0,137.85,150q5-13,11.17-21.13t12.07-11.61q5.88-3.47,10.71-3.47a8.77,8.77,0,0,1,6.71,2.49q2.34,2.49,2.34,7.31a65.28,65.28,0,0,1-1.66,10.87h1.36A7.72,7.72,0,0,1,186.21,136.76Z" transform="translate(-10.01 -34)"/><text class="cls-2" transform="translate(205.99 142.24)">NameMC <tspan class="cls-3" x="469.61" y="0">R</tspan><tspan class="cls-4" x="568.82" y="0">e</tspan><tspan class="cls-5" x="613.58" y="0">a</tspan><tspan class="cls-6" x="667.79" y="0">c</tspan><tspan class="cls-5" x="710.82" y="0">t</tspan></text></svg>